<?xml version="1.0" encoding="UTF-8" standalone="no"?>
<!DOCTYPE svg PUBLIC "-//W3C//DTD SVG 1.1//EN" "http://www.w3.org/Graphics/SVG/1.1/DTD/svg11.dtd">
<svg xmlns="http://www.w3.org/2000/svg" version="1.1" viewBox="0.00 0.00 1080.00 804.00">
<path fill="#005dab" d="
  M 590.24 638.80
  C 590.07 638.78 589.91 638.77 589.75 638.77
  C 589.21 638.76 588.71 638.89 588.25 639.14
  C 585.90 640.45 583.54 641.20 581.16 641.41
  C 576.50 641.83 572.21 643.87 567.58 644.34
  C 563.37 644.77 559.13 645.17 554.88 645.53
  C 545.17 646.34 535.32 646.32 525.74 646.44
  C 521.19 646.49 516.69 647.60 512.19 647.63
  C 500.00 647.73 487.26 647.70 473.96 647.55
  C 470.37 647.51 467.17 648.97 463.66 649.42
  C 463.01 649.50 462.48 649.97 462.30 650.59
  C 459.08 662.11 454.04 672.85 448.92 684.03
  C 448.21 685.60 448.68 686.60 450.34 687.05
  C 463.79 690.67 473.92 693.60 477.98 708.52
  C 480.39 717.36 480.68 726.08 478.86 734.67
  C 476.06 747.86 467.17 752.48 454.80 753.12
  C 449.05 753.42 443.04 753.76 436.75 754.13
  C 435.59 754.20 434.61 754.60 433.82 755.34
  C 433.59 755.56 433.46 755.87 433.48 756.19
  C 433.78 763.27 433.19 770.62 431.70 778.24
  C 430.01 786.90 425.17 795.54 415.79 796.81
  C 411.30 797.42 406.42 796.97 401.17 795.45
  C 388.97 791.92 377.79 788.98 367.62 786.63
  C 362.69 785.49 357.79 784.66 352.92 784.13
  C 348.86 783.70 343.65 783.53 337.29 783.64
  C 331.98 783.73 326.99 784.03 322.34 784.55
  C 314.28 785.45 306.37 786.26 298.31 787.59
  C 288.17 789.26 279.61 790.37 272.63 790.91
  C 267.74 791.30 262.11 791.41 255.76 791.24
  C 242.42 790.89 222.94 787.21 216.53 773.78
  C 213.66 767.77 212.67 761.57 213.56 755.18
  C 214.85 745.89 217.31 736.65 220.94 727.48
  C 227.39 711.18 234.10 694.48 241.08 677.38
  C 241.44 676.50 240.99 675.49 240.10 675.17
  C 224.10 669.41 211.81 658.26 200.95 644.62
  C 196.96 639.61 192.51 632.77 187.60 624.12
  C 186.15 621.56 183.92 619.78 182.61 617.00
  C 180.39 612.30 178.85 608.30 178.00 605.00
  C 174.91 593.11 173.37 581.16 173.38 569.13
  C 173.38 565.30 174.97 562.02 178.14 559.31
  C 178.61 558.91 179.29 558.85 179.83 559.16
  C 184.67 561.98 183.99 565.03 183.99 570.94
  C 183.99 575.25 183.54 580.13 184.87 584.19
  C 185.28 585.44 185.55 586.76 185.66 588.17
  C 185.76 589.47 186.04 590.84 186.51 592.27
  C 189.82 602.52 192.07 608.94 193.26 611.51
  C 200.96 628.20 211.60 642.24 225.19 653.64
  C 231.21 658.69 237.81 662.47 244.99 664.98
  C 245.62 665.20 246.31 664.89 246.56 664.28
  L 258.91 634.00
  C 259.23 633.21 260.00 632.69 260.86 632.69
  L 273.98 632.71
  C 275.33 632.72 275.76 633.35 275.29 634.60
  C 265.62 660.35 256.46 685.00 247.81 708.53
  C 244.73 716.89 241.23 724.66 237.74 732.89
  C 234.35 740.88 232.21 748.51 231.33 755.78
  C 230.69 761.01 232.28 767.86 236.33 771.51
  C 240.96 775.67 246.12 776.08 252.35 776.70
  C 254.55 776.92 256.58 776.94 258.44 776.75
  C 264.20 776.17 269.94 776.18 275.74 775.11
  C 279.55 774.41 283.52 774.75 287.46 774.28
  C 295.02 773.37 302.41 773.30 310.06 772.61
  C 323.27 771.43 337.56 771.14 352.92 771.73
  C 358.54 771.95 364.27 772.91 369.82 773.73
  C 374.18 774.37 378.68 775.52 383.33 777.18
  C 390.27 779.65 396.99 781.13 404.18 781.19
  C 410.62 781.24 413.58 777.31 415.49 771.69
  C 417.50 765.78 417.91 759.58 416.72 753.09
  C 416.11 749.74 414.50 745.34 412.08 742.95
  C 409.65 740.55 406.57 739.04 402.84 738.42
  C 397.69 737.56 392.48 737.31 387.21 737.68
  C 380.64 738.14 373.32 738.30 365.27 738.15
  C 363.44 738.12 361.66 737.89 359.93 737.47
  C 356.26 736.58 353.08 735.47 351.16 731.92
  C 348.65 727.26 347.53 722.68 347.22 717.26
  C 347.08 714.86 346.14 712.51 346.41 710.14
  C 346.82 706.49 347.25 702.79 347.70 699.02
  C 348.86 689.20 353.47 681.93 361.54 677.21
  C 368.37 673.21 376.19 669.00 384.99 664.58
  C 391.48 661.32 398.03 657.09 404.65 651.88
  C 410.00 647.67 414.27 642.18 417.46 635.41
  C 418.48 633.24 418.99 631.15 419.00 629.16
  C 419.02 625.05 419.00 620.96 418.95 616.88
  C 418.90 613.62 417.18 611.27 415.77 608.42
  C 408.09 592.80 401.95 580.91 397.35 572.76
  C 384.46 549.92 370.38 527.13 355.09 504.39
  C 344.03 487.93 332.76 471.10 321.28 453.91
  C 320.44 452.65 319.11 452.02 317.58 451.97
  C 312.18 451.78 307.76 451.35 304.31 450.68
  C 299.59 449.77 294.80 447.89 289.93 445.06
  C 285.76 442.64 282.18 439.24 279.20 434.86
  C 273.87 427.04 271.08 418.75 268.41 409.60
  C 267.22 405.51 266.15 401.59 265.21 397.84
  C 261.09 381.51 257.51 366.86 254.47 353.88
  C 253.17 348.33 251.89 342.88 251.26 337.01
  C 250.63 331.05 248.33 325.21 246.78 319.16
  C 244.17 308.97 241.88 299.32 239.93 290.19
  C 238.55 283.74 236.43 277.52 234.30 271.21
  C 233.46 268.73 232.76 266.29 232.21 263.88
  C 231.08 258.95 229.72 254.21 228.14 249.65
  C 227.21 246.98 227.36 244.20 226.57 241.68
  C 225.45 238.08 224.54 234.68 223.83 231.47
  C 219.55 212.12 215.96 194.93 212.93 176.87
  C 212.59 174.86 211.87 173.19 211.49 171.31
  C 209.93 163.71 208.34 155.89 206.73 147.86
  C 205.87 143.55 204.57 139.18 203.64 134.85
  C 201.17 123.28 198.13 110.57 194.52 96.71
  C 191.45 84.94 187.46 74.12 182.54 64.25
  C 177.78 54.69 169.97 45.05 160.71 39.88
  C 154.50 36.41 148.65 34.32 143.17 33.61
  C 134.52 32.49 125.19 32.88 116.86 35.17
  C 104.08 38.68 92.90 44.45 83.32 52.48
  C 77.59 57.28 72.48 63.54 67.99 71.26
  C 63.73 78.58 60.24 85.73 57.52 92.72
  C 54.63 100.14 51.82 108.13 49.73 115.78
  C 46.55 127.46 43.98 139.53 42.02 151.99
  C 41.78 153.51 41.82 155.06 41.49 156.58
  C 40.79 159.82 40.42 163.12 40.37 166.48
  C 40.32 169.33 41.69 171.81 41.66 174.60
  C 41.60 181.59 41.17 188.54 41.46 195.51
  C 42.02 208.95 42.02 222.47 42.32 235.83
  C 42.43 240.66 43.34 245.37 43.48 250.32
  C 43.64 255.87 44.65 261.53 45.25 267.15
  C 45.52 269.75 45.80 271.98 46.09 273.83
  C 49.76 297.92 53.54 323.09 57.43 349.36
  C 60.13 367.54 65.05 392.40 72.19 423.93
  C 73.05 427.74 73.65 431.13 73.98 434.10
  C 74.36 437.47 74.83 440.86 75.38 444.27
  C 76.25 449.62 78.05 455.14 80.11 460.21
  C 82.08 465.06 84.02 469.87 85.94 474.64
  C 87.57 478.69 88.93 482.49 90.03 486.03
  C 91.22 489.86 92.57 493.72 94.08 497.62
  C 94.85 499.61 95.11 501.82 95.49 503.92
  C 95.66 504.87 95.27 505.83 94.48 506.39
  L 83.56 514.13
  C 83.14 514.43 82.55 514.29 82.29 513.84
  C 81.74 512.86 81.26 511.87 80.87 510.88
  C 75.99 498.66 72.06 486.26 69.07 473.69
  C 60.78 438.78 52.64 405.22 45.97 368.35
  C 44.87 362.27 43.79 355.69 42.72 348.61
  C 39.01 324.06 35.13 298.08 31.07 270.65
  C 30.61 267.52 30.25 264.42 29.98 261.34
  C 29.73 258.31 29.39 255.20 28.97 252.01
  C 28.28 246.75 28.61 241.37 28.23 236.10
  C 27.58 226.89 27.24 217.58 27.21 208.17
  C 27.20 207.82 27.10 207.49 26.91 207.20
  C 26.30 206.28 25.97 205.36 25.94 204.45
  C 25.22 186.46 26.62 169.76 28.58 151.79
  C 30.41 135.10 33.59 119.06 38.14 103.68
  C 45.81 77.71 58.82 53.06 79.96 36.72
  C 91.00 28.19 103.92 22.41 118.72 19.38
  C 126.52 17.78 133.28 17.09 139.01 17.30
  C 156.82 17.97 171.62 25.07 183.40 38.58
  C 193.93 50.66 201.32 65.91 206.72 81.07
  C 211.18 93.60 215.01 106.64 218.20 120.21
  C 218.97 123.48 219.64 126.93 220.20 130.56
  C 221.27 137.50 223.20 144.33 223.54 151.46
  C 223.63 153.48 223.90 155.49 224.35 157.49
  C 224.93 160.09 225.00 162.70 225.46 165.35
  C 229.00 185.79 233.05 206.26 237.61 226.77
  C 238.89 232.50 239.41 238.52 240.95 244.13
  C 245.36 260.11 250.12 275.59 255.23 290.58
  C 257.80 298.11 258.54 305.80 260.78 313.33
  C 263.85 323.64 266.65 334.23 269.17 345.08
  C 269.75 347.59 270.04 349.99 270.04 352.27
  C 270.03 356.80 269.85 363.30 272.25 366.94
  C 274.04 369.65 275.12 372.11 275.51 374.32
  C 277.83 387.57 280.07 401.99 284.35 414.00
  C 288.49 425.60 296.29 438.86 310.99 436.49
  C 317.83 435.39 323.75 431.27 328.98 426.80
  C 339.83 417.52 348.05 406.70 356.99 395.01
  C 360.68 390.19 364.78 384.93 369.27 379.24
  C 390.85 351.88 411.80 324.11 437.52 300.70
  C 456.19 283.71 479.34 271.55 504.80 274.31
  C 513.90 275.30 523.27 278.07 532.90 282.60
  C 543.23 287.45 553.08 293.16 562.45 299.72
  C 563.07 300.15 563.92 299.96 564.29 299.30
  C 569.29 290.38 579.71 286.33 589.57 284.80
  C 597.61 283.55 605.48 283.08 613.19 283.40
  C 615.44 283.49 617.59 283.68 619.66 283.97
  C 622.42 284.35 625.20 284.43 627.96 284.86
  C 647.01 287.82 666.47 291.63 684.65 297.82
  C 691.66 300.20 705.44 305.90 708.61 313.18
  C 713.19 323.73 702.30 330.70 693.95 333.36
  C 685.72 335.98 679.30 337.61 674.68 338.24
  C 671.61 338.67 668.55 339.03 665.50 339.32
  C 662.02 339.65 658.75 339.54 655.70 338.99
  C 654.93 338.85 654.19 338.89 653.50 339.12
  C 652.45 339.46 651.93 340.63 652.37 341.64
  C 653.85 344.96 656.95 347.85 659.35 350.57
  C 660.44 351.80 660.88 353.19 660.69 354.74
  C 660.58 355.61 660.09 356.09 659.22 356.18
  C 651.01 357.04 645.33 353.43 640.51 347.35
  C 634.70 340.03 618.46 318.44 643.79 321.99
  C 648.24 322.61 652.84 323.28 657.58 323.99
  C 661.15 324.53 664.63 324.78 668.02 324.74
  C 676.76 324.64 684.70 324.37 692.26 319.70
  C 692.81 319.36 693.28 318.93 693.69 318.42
  C 694.11 317.89 693.96 317.10 693.36 316.78
  C 690.29 315.11 686.85 313.51 683.03 311.98
  C 664.89 304.75 646.86 300.19 628.95 298.31
  C 624.65 297.86 620.48 297.50 616.45 297.21
  C 606.52 296.52 597.13 297.37 588.27 299.78
  C 573.82 303.70 577.01 316.52 584.44 324.87
  C 587.48 328.30 590.84 331.50 594.53 334.47
  C 600.02 338.90 605.42 343.24 610.75 347.50
  C 613.54 349.73 616.15 352.96 618.43 356.09
  C 619.75 357.92 621.96 358.37 624.07 358.45
  C 631.10 358.74 638.31 359.11 645.69 359.56
  C 647.89 359.70 650.05 359.94 652.17 360.27
  C 655.24 360.76 658.31 360.59 661.35 361.15
  C 673.70 363.42 684.22 368.02 692.90 374.95
  C 697.71 378.80 699.48 383.23 698.23 388.24
  C 697.35 391.77 695.35 394.80 692.22 397.32
  C 682.63 405.06 670.58 407.50 658.29 406.71
  C 657.26 406.64 656.26 406.72 655.29 406.95
  C 654.46 407.15 654.22 408.21 654.88 408.75
  C 659.75 412.69 665.15 416.10 671.09 418.98
  C 677.31 422.00 684.04 425.22 691.29 428.63
  C 691.70 428.83 691.97 429.23 692.00 429.68
  C 692.07 430.78 691.36 431.87 690.40 432.37
  C 688.09 433.58 685.86 436.03 683.31 436.18
  C 681.76 436.27 680.25 436.10 678.76 435.69
  C 665.22 431.90 653.06 424.07 641.95 415.32
  C 636.06 410.69 631.62 405.74 628.63 400.48
  C 627.63 398.71 627.24 396.77 627.45 394.67
  C 627.49 394.30 627.71 393.96 628.04 393.79
  C 628.74 393.43 629.48 393.21 630.27 393.12
  C 634.14 392.69 637.93 392.63 641.66 392.96
  C 649.12 393.61 656.43 394.31 663.58 395.07
  C 666.42 395.37 670.38 394.85 675.47 393.50
  C 677.65 392.92 688.71 388.06 683.76 384.16
  C 677.22 379.01 670.78 377.60 662.67 375.83
  C 648.60 372.74 636.38 370.63 625.99 369.49
  C 615.30 368.31 604.37 368.39 593.20 369.74
  C 587.60 370.41 582.27 371.66 577.22 373.47
  C 572.33 375.23 565.97 380.00 570.69 385.89
  C 572.40 388.02 574.59 389.82 577.26 391.29
  C 583.39 394.67 589.72 397.98 595.57 402.10
  C 606.42 409.75 617.32 417.25 628.27 424.62
  C 635.28 429.34 642.93 433.86 651.20 438.19
  C 652.91 439.08 655.05 440.86 657.08 442.01
  C 659.37 443.31 661.66 444.70 663.97 446.17
  C 667.38 448.35 669.26 451.71 671.35 455.03
  C 672.89 457.50 672.92 460.12 671.69 462.71
  C 669.76 466.75 668.07 471.13 666.61 475.84
  C 665.90 478.12 664.94 480.26 663.72 482.25
  C 662.75 483.82 661.87 485.43 661.06 487.10
  C 639.71 531.36 622.63 577.91 609.23 625.15
  C 608.03 629.38 606.75 633.59 605.40 637.77
  C 603.27 644.38 601.79 651.23 600.97 658.31
  C 600.79 659.88 600.53 661.38 600.19 662.81
  C 599.73 664.75 599.88 666.72 599.54 668.66
  C 598.30 675.76 597.08 683.14 596.64 690.34
  C 596.38 694.68 595.58 698.86 595.42 703.23
  C 595.21 708.97 594.91 714.62 594.53 720.19
  C 593.72 732.03 593.75 742.60 593.89 753.50
  C 593.89 753.84 593.99 754.15 594.19 754.42
  C 598.14 759.83 603.34 762.96 609.80 763.82
  C 612.75 764.21 615.74 764.62 618.75 765.03
  C 623.24 765.65 627.62 764.22 631.52 764.15
  C 640.43 763.99 649.98 762.86 659.09 762.57
  C 663.22 762.44 667.51 762.21 671.94 761.88
  C 682.78 761.07 697.77 760.96 716.91 761.54
  C 720.26 761.64 723.40 762.51 726.76 762.61
  C 729.05 762.67 731.36 762.92 733.68 763.36
  C 736.76 763.95 739.76 764.24 742.76 765.26
  C 748.92 767.36 755.32 770.97 762.21 770.46
  C 770.99 769.81 770.60 759.19 769.33 752.59
  C 767.68 743.99 762.48 738.28 753.75 735.45
  C 747.58 733.46 740.26 731.65 731.79 730.03
  C 726.31 728.99 720.56 726.96 714.53 723.93
  C 707.85 720.58 702.52 716.11 698.54 710.54
  C 692.02 701.40 692.18 688.87 694.44 678.14
  C 695.03 675.33 695.35 673.00 695.40 671.17
  C 695.47 668.16 695.33 665.19 695.82 662.17
  C 697.26 653.43 699.16 645.70 701.53 638.98
  C 704.05 631.84 708.19 623.74 713.96 614.69
  C 723.81 599.23 735.93 581.37 750.30 561.12
  C 759.89 547.61 770.89 535.15 782.18 523.09
  C 786.68 518.29 789.99 512.75 794.23 507.80
  C 806.15 493.90 816.73 479.85 827.62 465.47
  C 831.27 460.66 835.41 456.48 839.80 452.34
  C 844.04 448.35 846.44 442.94 850.24 438.51
  C 860.04 427.10 866.19 414.13 871.92 399.78
  C 879.68 380.35 886.02 361.55 894.24 342.03
  C 899.39 329.77 904.92 319.60 910.81 311.51
  C 916.86 303.20 922.87 294.73 928.85 286.08
  C 942.02 267.02 953.39 246.44 962.94 224.34
  C 968.50 211.47 973.41 199.40 977.66 188.13
  C 981.99 176.66 991.81 148.84 1007.10 104.65
  C 1009.60 97.43 1013.11 88.72 1017.63 78.53
  C 1022.26 68.09 1028.57 57.77 1036.55 47.57
  C 1039.25 44.12 1042.60 40.66 1046.60 37.20
  C 1047.80 36.16 1048.94 35.03 1050.02 33.82
  C 1050.66 33.10 1050.91 32.11 1050.68 31.18
  C 1049.49 26.26 1045.96 20.35 1039.79 23.24
  C 1036.28 24.88 1033.34 26.90 1030.97 29.30
  C 1025.12 35.21 1018.90 41.31 1013.84 47.59
  C 1005.75 57.62 998.11 68.28 990.93 79.57
  C 987.94 84.26 984.88 88.96 981.75 93.67
  C 975.86 102.52 970.12 111.42 963.58 119.56
  C 930.26 161.03 893.28 203.65 852.63 247.42
  C 836.33 264.97 820.19 282.16 804.22 298.97
  C 789.89 314.06 774.67 328.49 759.98 343.01
  C 753.77 349.16 746.79 356.83 739.04 366.04
  C 732.40 373.94 728.73 384.24 718.62 388.67
  C 717.99 388.94 717.27 388.71 716.91 388.13
  C 714.89 384.86 714.23 381.64 715.66 377.91
  C 716.85 374.82 718.39 372.06 720.28 369.63
  C 733.01 353.33 747.18 337.69 761.97 322.87
  C 781.99 302.83 797.97 286.49 809.90 273.84
  C 840.17 241.77 869.81 208.60 898.83 174.33
  C 916.41 153.58 933.45 133.15 949.94 113.04
  C 959.91 100.89 968.46 89.40 975.59 78.59
  C 989.45 57.56 1004.36 38.60 1020.31 21.72
  C 1024.37 17.42 1027.75 12.68 1031.96 8.70
  C 1034.03 6.75 1036.93 5.41 1039.81 5.42
  C 1055.54 5.51 1060.96 22.29 1073.12 29.06
  C 1073.91 29.50 1074.09 30.56 1073.49 31.23
  C 1069.08 36.20 1064.52 41.23 1059.76 46.15
  C 1046.71 59.65 1036.29 71.41 1029.64 86.70
  C 1027.27 92.14 1024.78 97.45 1022.79 102.93
  C 1016.88 119.21 1011.57 135.73 1005.33 151.71
  C 999.96 165.46 994.70 179.29 989.56 193.18
  C 985.03 205.43 980.22 216.85 975.50 228.40
  C 968.67 245.10 960.97 261.70 951.96 277.30
  C 949.88 280.91 946.89 285.58 943.00 291.32
  C 938.69 297.69 934.60 303.80 930.75 309.66
  C 924.89 318.56 919.15 326.90 912.94 335.55
  C 904.95 346.67 899.08 358.66 894.72 371.25
  C 889.63 385.90 885.37 398.24 881.94 408.27
  C 880.76 411.72 879.33 414.95 877.64 417.94
  C 874.19 424.05 870.68 430.29 867.11 436.66
  C 865.44 439.63 863.06 441.93 861.34 444.83
  C 858.56 449.52 856.18 453.89 852.38 458.03
  C 846.74 464.18 841.48 470.79 836.60 477.87
  C 835.11 480.02 832.95 481.46 831.46 483.64
  C 825.64 492.10 819.48 500.25 812.99 508.09
  C 810.85 510.67 808.12 512.33 806.12 514.89
  C 798.89 524.18 792.08 532.61 787.18 543.31
  C 783.21 552.00 779.69 559.82 777.25 568.73
  C 776.24 572.44 773.11 576.46 771.29 580.36
  C 766.01 591.70 761.48 603.55 757.70 615.90
  C 755.84 621.97 755.14 627.99 753.70 634.11
  C 753.17 636.37 752.87 638.65 752.80 640.96
  C 752.46 651.68 753.23 662.30 755.12 672.83
  C 755.29 673.78 755.59 674.68 756.02 675.53
  C 756.19 675.87 756.49 676.12 756.85 676.22
  C 762.07 677.71 769.27 676.76 774.25 675.36
  C 781.16 673.41 788.02 670.98 795.09 671.44
  C 807.97 672.26 817.10 679.87 822.38 691.79
  C 826.53 701.18 827.45 713.04 823.93 722.48
  C 821.88 727.95 819.14 732.07 815.71 734.86
  C 809.08 740.25 801.50 741.95 793.17 741.05
  C 792.15 740.95 791.16 741.41 790.58 742.25
  C 788.11 745.86 786.57 749.86 785.96 754.27
  C 785.31 759.02 784.62 763.80 783.89 768.62
  C 783.26 772.73 781.83 777.81 778.74 780.66
  C 774.22 784.82 768.38 785.54 762.43 784.71
  C 752.92 783.38 743.87 780.85 734.36 779.26
  C 718.56 776.61 704.04 775.01 690.79 774.48
  C 676.13 773.89 662.69 774.60 650.48 776.59
  C 640.02 778.30 630.07 779.71 620.62 780.83
  C 612.77 781.76 605.26 781.53 598.08 780.15
  C 590.52 778.70 581.79 773.58 579.17 766.19
  C 576.21 757.83 576.95 746.60 577.77 738.00
  C 579.26 722.41 580.93 706.99 582.78 691.72
  C 583.35 687.05 583.08 681.26 583.95 675.96
  C 585.34 667.43 586.92 658.92 588.67 650.43
  C 589.43 646.75 589.06 642.90 590.56 639.34
  C 590.66 639.10 590.50 638.82 590.24 638.80
  Z
  M 571.21 508.40
  C 562.90 508.82 556.70 504.80 549.64 500.72
  C 536.78 493.27 524.55 511.07 537.04 520.04
  C 545.11 525.83 553.32 529.48 561.66 530.97
  C 567.23 531.97 574.83 532.27 580.40 530.09
  C 583.70 528.80 585.83 527.77 586.79 526.99
  C 592.88 522.02 596.47 515.61 597.57 507.76
  C 598.59 500.49 597.51 493.74 594.34 487.50
  C 587.87 474.75 577.57 466.45 563.45 462.59
  C 557.22 460.89 550.65 459.66 545.62 455.25
  C 536.70 447.42 543.72 436.03 554.22 437.84
  C 562.42 439.25 571.93 444.02 579.17 450.30
  C 585.49 455.78 594.85 453.55 597.88 445.88
  C 600.28 439.79 597.20 434.76 592.26 430.95
  C 580.06 421.54 565.96 414.38 550.78 414.40
  C 545.59 414.41 540.97 415.47 536.94 417.60
  C 526.14 423.30 517.83 434.30 517.98 446.72
  C 518.05 452.79 519.58 458.36 522.56 463.41
  C 529.60 475.33 541.31 481.36 555.13 484.41
  C 562.37 486.01 568.05 489.37 572.24 495.58
  C 574.36 498.71 574.95 502.07 574.02 505.64
  C 573.66 507.00 572.74 508.32 571.21 508.40
  Z
  M 466.10 522.27
  C 468.67 513.76 470.93 505.21 472.89 496.60
  C 474.74 488.47 476.21 478.89 477.32 467.86
  C 478.27 458.37 477.27 449.88 474.32 442.38
  C 472.42 437.55 466.23 430.03 460.19 429.33
  C 455.04 428.73 450.81 428.93 447.50 429.94
  C 438.58 432.65 429.19 435.54 419.32 438.59
  C 416.15 439.57 412.92 440.26 409.65 440.66
  C 405.09 441.22 401.75 443.16 399.62 446.49
  C 394.67 454.22 400.91 465.22 410.30 464.19
  C 411.50 464.06 412.72 463.89 413.96 463.67
  C 426.41 461.43 438.74 457.13 451.27 452.99
  C 452.41 452.61 453.62 453.35 453.80 454.54
  C 454.31 458.00 454.45 461.33 454.21 464.53
  C 453.25 477.02 450.82 490.27 446.93 504.27
  C 444.22 514.04 441.42 523.80 438.53 533.54
  C 434.96 545.63 444.89 552.10 455.91 550.38
  C 470.67 548.07 485.10 543.07 499.63 539.36
  C 506.90 537.50 511.15 532.05 509.31 524.39
  C 508.85 522.46 507.57 520.57 505.48 518.70
  C 502.49 516.03 498.37 515.41 493.14 516.84
  C 484.81 519.12 476.34 521.48 467.71 523.91
  C 466.18 524.34 465.64 523.80 466.10 522.27
  Z
  M 737.80 648.19
  C 737.87 645.17 738.83 642.45 738.65 639.36
  C 738.24 632.39 738.65 625.91 739.89 619.91
  C 740.62 616.39 741.99 612.25 744.02 607.50
  C 746.32 602.14 750.01 597.94 752.18 592.43
  C 756.59 581.20 761.16 571.48 765.87 563.26
  C 765.92 563.18 765.93 563.09 765.90 563.00
  C 765.87 562.89 765.81 562.81 765.73 562.75
  C 765.52 562.61 765.34 562.63 765.17 562.81
  C 763.93 564.14 762.79 565.55 761.76 567.04
  C 753.93 578.31 746.35 589.23 739.02 599.81
  C 736.69 603.19 734.49 606.79 732.44 610.60
  C 730.23 614.71 727.34 618.06 724.81 621.71
  C 722.73 624.72 720.98 628.19 719.55 632.11
  C 714.88 644.96 711.41 658.25 709.12 671.98
  C 708.77 674.09 708.58 676.05 708.57 677.85
  C 708.53 681.98 707.87 685.84 708.12 689.98
  C 708.26 692.23 708.53 694.20 708.93 695.88
  C 710.89 704.14 718.19 709.55 725.78 712.27
  C 732.55 714.70 739.76 716.61 747.43 718.01
  C 750.84 718.63 754.19 719.49 757.49 720.58
  C 763.08 722.44 769.23 724.28 773.70 728.37
  C 774.62 729.21 775.54 730.01 776.46 730.77
  C 776.77 731.02 777.12 731.11 777.51 731.06
  C 779.45 730.78 780.98 729.72 783.02 729.34
  C 789.14 728.17 795.20 727.49 801.27 725.63
  C 805.94 724.19 811.58 720.38 811.59 715.23
  C 811.59 711.90 810.56 708.77 810.38 705.40
  C 809.77 694.58 804.10 686.89 792.71 686.47
  C 788.39 686.32 784.38 686.62 780.67 687.38
  C 778.57 687.81 776.44 688.19 774.29 688.53
  C 770.92 689.06 767.54 689.63 764.15 690.22
  C 757.29 691.43 752.08 691.65 746.39 689.00
  C 740.42 686.22 739.45 677.94 738.36 672.35
  C 737.97 670.35 737.76 668.33 737.73 666.30
  C 737.64 660.27 737.67 654.24 737.80 648.19
  Z
  M 428.29 698.60
  C 427.98 698.43 427.84 698.07 427.96 697.75
  C 431.33 688.16 435.33 678.63 439.70 669.70
  C 443.05 662.86 446.10 655.70 448.84 648.21
  C 449.15 647.36 448.61 646.45 447.72 646.31
  L 431.74 643.76
  C 431.35 643.70 431.05 643.84 430.84 644.18
  C 427.75 649.33 423.99 654.31 418.82 657.99
  C 415.45 660.38 412.42 664.36 408.68 666.15
  C 400.75 669.95 392.98 673.72 385.38 677.47
  C 381.03 679.61 376.99 682.16 373.07 684.83
  C 368.91 687.66 365.60 691.73 363.14 697.05
  C 362.14 699.21 362.61 701.52 361.90 703.68
  C 360.99 706.43 360.80 709.14 361.83 711.88
  C 362.50 713.67 362.21 715.57 363.27 717.23
  C 364.04 718.44 364.84 719.63 365.66 720.81
  C 366.51 722.04 368.22 722.32 369.60 722.31
  C 378.03 722.21 386.88 722.14 396.15 722.11
  C 400.14 722.09 403.74 723.14 407.80 723.29
  C 413.47 723.51 418.76 725.31 423.67 728.70
  C 426.25 730.49 427.98 733.54 429.65 736.18
  C 430.05 736.82 430.63 737.13 431.39 737.11
  C 437.82 736.96 444.35 736.94 451.00 737.06
  C 455.58 737.14 459.63 734.39 461.61 730.33
  C 462.44 728.62 462.86 726.53 462.88 724.06
  C 462.91 721.21 462.74 718.82 462.38 716.91
  C 461.22 710.84 458.22 706.10 453.37 702.69
  C 451.16 701.14 449.12 700.38 447.25 700.40
  C 443.32 700.44 439.32 700.43 435.26 700.37
  C 432.70 700.33 430.38 699.74 428.29 698.60
  Z"
/>
<path fill="#005dab" d="
  M 830.93 380.17
  C 826.67 388.60 820.34 395.77 813.68 402.72
  C 805.30 411.47 796.74 418.16 787.99 422.79
  C 780.28 426.88 771.78 430.22 762.48 432.79
  C 757.69 434.11 752.40 434.71 747.54 434.18
  C 746.43 434.06 745.01 433.73 743.30 433.18
  C 739.56 432.00 737.09 428.08 736.39 424.47
  C 733.44 409.16 743.78 396.05 754.65 386.48
  C 769.24 373.64 782.67 359.43 794.89 344.18
  C 795.38 343.56 796.15 343.22 796.94 343.28
  C 806.65 343.97 815.20 346.64 822.61 351.29
  C 833.16 357.92 836.59 368.95 830.93 380.17
  Z
  M 811.6642 360.5419
  C 811.49 358.83 807.50 357.85 802.7503 358.3365
  C 798.00 358.83 794.30 360.61 794.4758 362.3181
  C 794.65 364.03 798.64 365.01 803.3897 364.5235
  C 808.14 364.03 811.84 362.25 811.6642 360.5419
  Z
  M 798.91 375.53
  C 794.93 375.10 790.68 374.40 786.15 373.45
  C 785.33 373.28 784.48 373.59 783.95 374.25
  C 777.59 382.31 769.20 388.48 761.50 395.17
  C 756.06 399.90 751.78 405.42 748.43 411.68
  C 746.68 414.96 745.17 418.29 748.36 420.68
  C 749.33 421.41 750.43 421.82 751.66 421.89
  C 758.49 422.30 764.94 421.57 770.99 419.69
  C 785.21 415.28 798.50 406.34 809.05 395.88
  C 814.01 390.97 819.18 383.88 820.22 376.70
  C 820.36 375.76 819.51 374.98 818.58 375.17
  C 813.99 376.12 809.72 376.77 805.02 376.21
  C 803.01 375.98 800.97 375.75 798.91 375.53
  Z"
/>
<path fill="#005dab" d="
  M 103.84 474.36
  C 104.07 469.34 106.18 462.22 109.18 458.20
  C 111.30 455.37 112.97 453.00 116.94 452.87
  C 126.14 452.59 123.69 474.48 123.05 479.60
  C 122.32 485.51 121.79 491.92 121.46 498.81
  C 121.40 500.08 121.37 501.26 121.38 502.35
  C 121.42 508.20 121.60 514.48 121.91 521.19
  C 122.70 537.85 125.80 554.09 130.37 570.33
  C 132.45 577.73 132.83 585.12 131.52 592.50
  C 131.45 592.88 131.13 593.15 130.75 593.14
  C 130.06 593.14 129.52 592.81 129.11 592.16
  C 124.92 585.43 121.39 578.11 118.51 570.22
  C 110.79 549.09 106.44 527.26 105.46 504.75
  C 105.30 501.01 104.93 497.10 104.35 493.03
  C 103.65 488.09 103.48 481.87 103.84 474.36
  Z"
/>
<path fill="#005dab" d="
  M 141.68 524.85
  C 142.75 522.10 145.30 517.99 148.70 518.05
  C 154.24 518.16 153.62 528.92 153.24 532.39
  C 151.83 545.32 151.53 557.44 152.36 568.75
  C 153.03 577.88 154.80 587.47 157.69 597.54
  C 159.20 602.79 159.60 607.96 158.88 613.03
  C 158.82 613.45 158.62 613.79 158.27 614.05
  C 157.90 614.33 157.37 614.23 157.14 613.83
  C 152.47 605.70 148.93 597.19 146.50 588.30
  C 143.74 578.20 141.77 567.99 141.13 557.40
  C 140.82 552.26 140.39 547.27 139.84 542.44
  C 139.15 536.47 139.47 530.53 141.68 524.85
  Z"
/>
</svg>
